<svg xmlns="http://www.w3.org/2000/svg" xmlns:xlink="http://www.w3.org/1999/xlink" viewBox="0 0 51.3 51.3"><defs><style>.cls-1{fill:none;}.cls-2{clip-path:url(#clip-path);}.cls-3{stroke-miterlimit:10;fill:url(#linear-gradient);stroke:url(#linear-gradient-2);}.cls-4{fill:#9b97ff;}</style><clipPath id="clip-path"><circle class="cls-1" cx="25.65" cy="25.65" r="25.15"/></clipPath><linearGradient id="linear-gradient" x1="7.87" y1="43.43" x2="43.43" y2="7.87" gradientUnits="userSpaceOnUse"><stop offset="1" stop-color="#27213c"/><stop offset="1" stop-color="#34303d"/><stop offset="1" stop-color="#707944"/><stop offset="1" stop-color="#a0b348"/><stop offset="1" stop-color="#c3dc4c"/><stop offset="1" stop-color="#d8f64e"/><stop offset="1" stop-color="#e0ff4f"/></linearGradient><linearGradient id="linear-gradient-2" x1="7.51" y1="43.79" x2="43.79" y2="7.51" xlink:href="#linear-gradient"/></defs><title>Asset 3</title><g id="Layer_2" data-name="Layer 2"><g id="Layer_7" data-name="Layer 7"><g class="cls-2"><circle class="cls-3" cx="25.65" cy="25.65" r="25.15"/><path class="cls-4" d="M28,48.5c0,.1.38.09.45.11C28.39,48.45,27.91,48.5,28,48.5Z"/><polygon class="cls-4" points="27.22 46.79 27.39 46.84 26.99 46.55 27.22 46.79"/><path class="cls-4" d="M27.39,45.27c-.73.06.05.57-.23.81l-.17,0,.56.18C27.49,45.95,27.17,45.48,27.39,45.27Z"/><path class="cls-4" d="M29,44.64c-.28,0-.22-.2-.11.18l.07,0A.39.39,0,0,1,29,44.64Z"/><path class="cls-4" d="M29,44.79c0,.16.24-.08,0,0Z"/><path class="cls-4" d="M28.92,44l.22.24c.17,0,.23-.2.34-.12C29.36,43.93,29.2,44,28.92,44Z"/><path class="cls-4" d="M28.42,43.78l.09.12C28.58,43.89,28.61,43.86,28.42,43.78Z"/><path class="cls-4" d="M28.7,44.16l-.19-.26c-.12,0-.35,0,.07.12C28.37,44,28.57,44,28.7,44.16Z"/><path class="cls-4" d="M28.58,44.27c-.17.1-.28.24-.5,0C28.12,44.68,28.63,44.69,28.58,44.27Z"/><path class="cls-4" d="M26.66,45.1l-.23.14.22.17C26.55,45.32,26.89,45.12,26.66,45.1Z"/><path class="cls-4" d="M29.46,42.8a5.35,5.35,0,0,0-.6,0L29,43A.67.67,0,0,1,29.46,42.8Z"/><path class="cls-4" d="M28.85,42.8l-.23-.27C28.57,42.73,28.68,42.79,28.85,42.8Z"/><polygon class="cls-4" points="27.64 43.64 28.14 44.09 27.64 43.56 27.64 43.64"/><polygon class="cls-4" points="29.61 41.93 29.93 42.11 29.44 41.8 29.61 41.93"/><path class="cls-4" d="M29.63,41.34c.27.14.51-.05.67.08,0-.16-.25-.34-.45-.49C30,41.07,29.9,41.2,29.63,41.34Z"/><path class="cls-4" d="M29.56,40.67a1.84,1.84,0,0,0,.29.26A1,1,0,0,0,29.56,40.67Z"/><path class="cls-4" d="M28.76,42.15a.76.76,0,0,0,.46-.12l-.44,0Z"/><path class="cls-4" d="M28.77,42.06h0l.05-.19Z"/><path class="cls-4" d="M28.75,42.17v0S28.7,42.16,28.75,42.17Z"/><path class="cls-4" d="M28.11,43.08c-.22-.17-.43-.49-.83-.26C27.55,43,27.78,42.82,28.11,43.08Z"/><path class="cls-4" d="M28.21,42.21l-.13.23a.73.73,0,0,1,.39.07Z"/><polygon class="cls-4" points="28.09 42.07 28.21 42.21 28.26 42.12 28.09 42.07"/><path class="cls-4" d="M29.1,41a.44.44,0,0,1-.17-.39.84.84,0,0,0-.2.4C28.86,41.07,29.09,41.17,29.1,41Z"/><path class="cls-4" d="M28.9,41.52l0,0S28.82,41.51,28.9,41.52Z"/><path class="cls-4" d="M29.15,39.35h-.08l.07,0Z"/><path class="cls-4" d="M28.65,41c-.1.09,0,.17.11.25a.58.58,0,0,1,0-.26C28.67,41,28.63,41,28.65,41Z"/><path class="cls-4" d="M29.42,40.28a1.43,1.43,0,0,0-.26.14C29.3,40.39,29.53,40.32,29.42,40.28Z"/><path class="cls-4" d="M29,41.48l0,0C29.11,41.47,29.06,41.47,29,41.48Z"/><path class="cls-4" d="M29,41.48a1.18,1.18,0,0,0-.24-.18.55.55,0,0,0,.11.2Z"/><path class="cls-4" d="M26.52,38.47c.39.09.7.44.24.61a4.25,4.25,0,0,0,2.31.28.68.68,0,0,1-.51-.35c-.23,0-.59.45-.91.18-.14-.36.18-.24.42-.36-.51,0-.63-.54-1.36-.6l.2.33C26.79,38.54,26.63,38.41,26.52,38.47Z"/><path class="cls-4" d="M28.95,39.81l0,.11a1.28,1.28,0,0,1,.59-.25.77.77,0,0,0-.43-.29l-.14.48Z"/><path class="cls-4" d="M28.9,40.36c-.41-.15-.55-.42-1-.35,0,.3.32.27.48.47,0-.49.21.17.51-.13a.6.6,0,0,1,.07.27,1.25,1.25,0,0,1,.23-.21h0c-.06,0-.09,0-.06,0h0l-.16,0c.11-.12.11,0,.16,0l.06,0h0L29,39.92C28.9,40,28.89,40.13,28.9,40.36Z"/><path class="cls-4" d="M26.4,42.43h.1S26.42,42.37,26.4,42.43Z"/><path class="cls-4" d="M26.68,42.27c.05,0,.22.1.16.2s-.2,0-.35,0c.1.09.27.28.51.1l-.05,0a1.5,1.5,0,0,1,.8-.3A5.17,5.17,0,0,0,26.68,42.27Z"/><path class="cls-4" d="M27.68,41.27l-.15-.43-.4.14.22,0C27.23,41.22,27.52,41.22,27.68,41.27Z"/><polygon class="cls-4" points="29.37 39.34 29.81 39.47 29.21 39.13 29.37 39.34"/><polygon class="cls-4" points="29.41 38.82 29.79 38.91 29.58 38.74 29.41 38.82"/><path class="cls-4" d="M26.88,17.78l.11-.19A.5.5,0,0,0,26.88,17.78Z"/><path class="cls-4" d="M25.64,18.45l.12.15C25.73,18.5,25.69,18.43,25.64,18.45Z"/><path class="cls-4" d="M29.73,24c.15-.34.49-.8.21-.44l-.26.35C29.76,23.88,29.76,23.93,29.73,24Z"/><path class="cls-4" d="M21.11,23.66l-.33,0,.81,0Z"/><path class="cls-4" d="M17.49,23.64l1-.23A8,8,0,0,0,17.49,23.64Z"/><path class="cls-4" d="M25,18.33l-1.14.14S24.4,18.4,25,18.33Z"/><path class="cls-4" d="M30.35,33.62a.7.7,0,0,0,.34-.29C30.41,33.44,30,33.49,30.35,33.62Z"/><path class="cls-4" d="M29.43,21.62a.71.71,0,0,0-.13-.23A.45.45,0,0,0,29.43,21.62Z"/><path class="cls-4" d="M30.79,32.91l-.12.05a.45.45,0,0,1,0,.36C30.9,33.24,31,33.13,30.79,32.91Z"/><path class="cls-4" d="M22.53,17.29v-.05C22.51,17.3,22.52,17.3,22.53,17.29Z"/><path class="cls-4" d="M18,12.91a.58.58,0,0,1,.21,0S18.07,12.85,18,12.91Z"/><path class="cls-4" d="M30,36.83c0,.11,0,0,0,0Z"/><path class="cls-4" d="M28.2,37a.49.49,0,0,0-.2-.09A.63.63,0,0,1,28.2,37Z"/><path class="cls-4" d="M28.45,31.17h0C28.37,31.17,28.38,31.17,28.45,31.17Z"/><path class="cls-4" d="M29.76,36.95a.52.52,0,0,0,.15-.11A.55.55,0,0,0,29.76,36.95Z"/><path class="cls-4" d="M30,37l-.06.09C30,37.08,30,37.08,30,37Z"/><path class="cls-4" d="M30,36.67a.3.3,0,0,1-.08.16s.06,0,.07,0A1.36,1.36,0,0,1,30,36.67Z"/><path class="cls-4" d="M28.8,16.14l.09,0C28.35,16.28,28.46,16.25,28.8,16.14Z"/><path class="cls-4" d="M22.78,26.66h0v0Z"/><path class="cls-4" d="M21.72,26.71c1-.28,1.06-.21,1.1-.08q.75-.45,1.55-.89Q23.1,26.24,21.72,26.71Z"/><path class="cls-4" d="M25,18.68l-.85,0c-1.19-.06-.77,0-1.89,0,1.38,0,1.4,0,1.42.06l0,0c-.09.07.36-.15.59-.23a2.63,2.63,0,0,1,1.53-.16,2.06,2.06,0,0,1,.19-.44c-.15.1-.27.08-.43.18a1,1,0,0,1,1.23-.44c.23,0,.46.11.66.12s.07.08,0,.13a.35.35,0,0,1-.19.12c-.27,0-.55,0-.48-.26q-.16.28-.29.55c-.16.06-.29-.14-.12-.2l-.68.51,0,0a6.75,6.75,0,0,1,.11.72c-.34,0,0-.14-.23-.23q-.06.22-.09.43c-.49-.13-.47-.53-.13-.67-.77-.34-.82-.22-.82,0s0,.43-.83.45l.25-.34c-1.05-.29-1.13.08-2.22.14.21,0,.83,0,1.34.1s.92.21.88.43c-.24,0-.47.09-.4.37-.56-.24-.68,0-1,.15l-.78-.3c-.14.29.32.41.5.63a4.62,4.62,0,0,1-1.91,0c-.41.18,0,.17.41.2s.85.07.59.29a2.08,2.08,0,0,0-.49.17l-.08,0,0,0,.15-.08.61-.29c.41-.19.83-.36,1.25-.5l.15-.05.08,0s0,0,0,0l-.1.13-.2.27c-.61.09-.16-.36-.45-.41a4,4,0,0,0-.08.63c-.11,0-.2-.08-.24-.15-.2.34.45.48.13.86.26.26-.17.21-.75.25s-1.31.19-1.07.52c-.41,0-.47-.19-.85-.25a1.45,1.45,0,0,0-.13.62c0,.12.09.24.42.46l-1.33.27a6.7,6.7,0,0,1,2.65.24l1.28-.11a2,2,0,0,0,.48.12c-.26,0-.75.05-1.28,0l.28,0a11.29,11.29,0,0,1-2.13.1l1-.14c-.74,0-1.47-.11-2.28-.08.11,0,.15.07.14.12a2.61,2.61,0,0,0-.51,0c-.17,0,.05.06.3.1L16.67,24h.59l-2.16.71a3.08,3.08,0,0,0,.77,0l1,0,1.92-.1c1.23-.07,2.29-.13,3-.11-1.35.17-2,.34-3.36.59,1.26-.32-1.33-.07-1.52-.25.08.09-.69.18-1,.2h2.29c-1.18.2-.68.2-.91.35a8.67,8.67,0,0,1,3.06-.18,3.5,3.5,0,0,1-1.72.15c-.56.23.23.14,1,0s1.54-.23,1.12,0c-.11,0-.06-.06-.44,0,.81-.09.89.17.23.29l-.11,0a5,5,0,0,0,3.43,0c-.16.07-1.62.63-1.93.72a45.36,45.36,0,0,0,5-1.59c-.48.22-1.2.62-1.95,1a6.25,6.25,0,0,1-2,.83c0,.11.1.26.79.17A3.93,3.93,0,0,1,24.89,26c-.62.68-.3.37-.57,1A4.2,4.2,0,0,1,26,26.12c-.22.12-1.18.87-1.41.94.63-.23,1.22-.46,1.77-.72a2.81,2.81,0,0,0-1.09,1c.13-.2.62.18.92.14,0-.1-.07-.2-.09-.3.7.37,1.92-1.14,2.34-.84a4.29,4.29,0,0,0-.51.67,2.13,2.13,0,0,0-.27.7,4.66,4.66,0,0,1,1.19-1.16,1.54,1.54,0,0,1,1.77-.11,3.35,3.35,0,0,1-.25.27,3.06,3.06,0,0,1,.5.56A3.58,3.58,0,0,0,29,27.05a2.42,2.42,0,0,0-1.39.82,1.75,1.75,0,0,1,.26-.25,1.63,1.63,0,0,0-.16.15c.22-.21.24-.2.25-.2l-.16,0-.23,0h.16l.17,0h0s0,0,0,0h0l.08,0,.14,0c.37-.11.69,0,.62.22-.27.05-1.19-.11-1.42-.07.24,0,.43.18.25.19a1.91,1.91,0,0,0-.34-.15c-.26,0,.83.4.13.52-.07.08-.92.09-.55.21a14.82,14.82,0,0,1,3.6.93,5.73,5.73,0,0,1-1.27.4c-.63,0-1.3-.66-1.84-.65a1.23,1.23,0,0,1,.42.28c-.18.08-.53-.2-.53.08.64.22-.2.51.52.27.12.3-.21.23-.26.53a2.64,2.64,0,0,1,1.5.95,1.63,1.63,0,0,0-.5-.06c-.19.49-.56.69-.69,1.17-.17,0-.42.19-.68,0,.1.1.31.22.29.37-.64.15,0-.35-.75-.3.38.11.44.52.63.78.61.08.23-.46,0-.73a2.86,2.86,0,0,1,1.85,1.36c.11.44-.57,0-.47.14-.31.71,1.29,1,.56,1.43-.58.13-1-.22-1.44-.25-.13-.37.44-.42.47-.65l-.31.21c-.15-.14-.23-.39-.05-.47-.52.1-.37,1.24-.93,1.73.15.14.3.36.53.32l0-.2c.46-.08.52.47.76.28.25.31.66.67.35,1L28,37.3c.18,0,.4-.15.24-.29.24.19-.92.37-.16.68l.46-.16c.25.3.84.73.59,1,.62,0-.05-.08.68-.16-.9,0,.18-.76-.78-.64.85-.06.42-.31,1.16-.46-.2,0-.4,0-.25-.21L29.75,37h0s0,0,0,0a.8.8,0,0,1-.33.07c-.43-.22-.33-.62-.54-.8.13-.13.21.11.44.07L29,36c.44.07.81-.24,1,.17l.09-.31c.29-.13.44-.36.29-.56.13-.13-.4-.48-.09-.28l-.16-.56.11,0c.17-.47-.48-1.18.44-1.54a.57.57,0,0,1,0-.63l.39,0c-.08-.24.54-.53.17-.72,1.07,0,.49-.94.77-1.26l-.48-.15c.1-.25,0-.5-.07-.92l-.44-.1c-.29-.4.59-.78.52-1.81.18.06.14.32,0,.46.54-.49.27-1.36-.25-1.91s-1.1-.81-1.26-1.39a.59.59,0,0,1-.32-.1c-.06-.05-.14-.15-.11-.2h0l0,0c0-.08,0-.17.07-.23a.8.8,0,0,0-.08.23s-.12,0-.26.07l.28-.4h0c.08-.16-.19.16-.4.46l-.29.19c.51-.62-.4.13.18-.5-.38.29-.57.15-1.5.72.11-.08.14-.12.19-.11s0-.18-.35,0l.66-.41q-.56.25-1.19.48A3.68,3.68,0,0,1,28.23,24a5.36,5.36,0,0,1-.88.25l-.95.23.59-.23c-.1,0-1.08.25-.64,0s.31-.3.07-.38-.54-.16,0-.35c-1.25.24-1,.18-.72.1s.69-.17-.37,0c.61-.11.93-.18,1.55-.25-.85,0,.85-.21-1.21,0l1.48-.18c-.17,0-.66.09-.26.05a9.5,9.5,0,0,0,1-.14,27.4,27.4,0,0,1-4.19.43c.93-.09.75-.05-.26-.08.57,0,1.11,0,1.28,0s.68.05-.33-.11c.27,0,.11,0,0,0,.14,0,.2,0,.2-.07l-.14,0c-.81-.43-.07-.16-.08-.26l.06.05c.33.13.26.09.26,0s0-.05,0,0l.07,0c.12,0,.46-.15.84-.28a5,5,0,0,1-.54-.24c-.17-.2-.16-.31,0-.38a1.54,1.54,0,0,1,.32-.11,1.65,1.65,0,0,1,.45-.08c.48,0,1.05,0,.88-.1l-.47,0c-.18-.1.42,0,1,.08s1.28.29,1.39.3a.68.68,0,0,1,.23.11c.9.19-.77-.28-.78-.45a9.59,9.59,0,0,0,1.13.42c.17.06-.1-.1-.26-.27s-.21-.35.14-.18c-.26-.16-.54-.29-.62-.47s.34,0,.53.11.3.08.09-.27a.85.85,0,0,1,.15.15c0-.24-.05-.38.39-1.14a1.71,1.71,0,0,0,1.51-.17,4.55,4.55,0,0,0,.7-.45l.29-.24.13-.12s0,0,0-.06c0-.24-.21-.42,1.28-.4a6.2,6.2,0,0,0,.48-.47h.29c.57-.31-.06-.38-.66-.42a2.38,2.38,0,0,1,.65-.05c1.06-.44.91-.49-.13-.62l.94-.14c-.22,0,.28-.18.71-.38s.77-.41.47-.49a1.89,1.89,0,0,1,.32,0c-.29-.09.44-.39.82-.62s.51-.38-.5-.22a1.37,1.37,0,0,1-.28-.18c-.49.44-.83.15-1.31.4.07-.12.94-.61.9-.4l-.12.06c.49-.09.68-.25.79-.44s.17-.45.45-.49c-1-.15-1.3-.61-2.06-.9l-.92.49-.26-.08c.16-.13.71-.42.88-.34.48-.31-.85.14-1.1.26,0-.31,1.42-.57,1.31-.61h-.25l-.09.07c-.58.18-1.07.41-1.28.33.06-.15.61-.37.59-.41s.1-.07-.06,0l-.27-.16-.77.53c-.63.2-.33-.09-1.19.5.67-.45.46-.61.11-.68l-.27,0h-.4c-.24,0-.38,0-.33-.1a3.25,3.25,0,0,1-1.83.36c0,.12-.88.77-1.12.69,1.89-1.34,0-.58.75-1.54-.37.64-1.47.16-1.84,1.06-.24-.11.46-.5.47-.82A2.09,2.09,0,0,1,26,13a3.55,3.55,0,0,0-1.57-.21c-.07.18,0,.44-.32.71a5.2,5.2,0,0,0-.33-.88c-.27.09-.41,1-.7.4,0,.15.08.37-.06.43a3.38,3.38,0,0,0-.74-.22,2.52,2.52,0,0,0-.56-.06,11,11,0,0,0-1.14.1,2.4,2.4,0,0,1-2.28-.74c.2.34.07.37-.09.39.1.08,0,.43,0,.67l-.63-.66c-.12.66-.68,0-.74.68l.2-.11c-.27.75.37,1.66.33,2.62.3-.85.78,1.26,1.27,0,.11.2-.09.31,0,.53.12-.41.27-.5.55-.31l0,.1c.78-.1,1.11.31,2,.58L21,16.53c.19.06.23.21.31.33.22-.72-.53,0-.33-.83.12.48.46.49.78.51a.94.94,0,0,1,.45.1c.13.08.13.23.14.5.12,0,0-.55.14-.54v.3l.09-.38c.1.06.07.43,0,.68,0,0-.06.07-.08.09,0,.35.27-.12.28,0a1.38,1.38,0,0,0,0-.18,1,1,0,0,1,.59-.12,1.84,1.84,0,0,0,.9-.37l.18-.22c.78-.41,0,.25.59.05l-.08.05a1.44,1.44,0,0,1,.68-.31c-.44.26-.52.51-1,.8.93-.44.61-.35,2.16-1.18l-.51.37a5.42,5.42,0,0,1,1.34-.61c-.73.32-.83.56-1.73,1-.51.4-.07.2.35,0s.74-.27-.38.32c2.26-1,.79-.57,1.33-.79a4.79,4.79,0,0,1,1.66-.66c.15,0-2.45,1.31-2.18,1.29,0,0-.19.07-.21.07-.51.26,1-.35.14.07,1.57-.62.06,0,2.05-.75l-.76.18c.62-.21,3.18-1.13,2.41-.68l-1.46.49c-.52.23.58-.15,0,.08-2.12.79-.82.17-2.46.77-.78.33,1.7-.57-.54.28,1.43-.54,1.42-.51,1.32-.44s-.31.17.94-.25l-1.33.47c.23-.07.91-.3.93-.29l-1.81.61c1.61-.52-1.13.46-.24.17-.22,0,1.65-.57,2.56-.92,2.31-.63-3.51,1.24-2.62,1-.23.07.78-.28,1.54-.5-.25.1-.76.28-1.56.53.48-.1,1.59-.49,2.63-.78-1.85.58.9-.23,1.68-.42L28.21,17c-.18.06-.13.09.13,0s.68-.16,1.1-.26c.84-.22,1.66-.4.92-.09l-2.25.49.53,0-1.87.45c1.33-.26.91-.12.31.06a22.63,22.63,0,0,1,2.79-.55,7.25,7.25,0,0,0-1.39.34c-.91.17-2.12.42-.62.07l-1.46.3c-1.13.27-.37.13-.4.15l.4-.1q1-.17,1.87-.29c-.59.13-1,.19-1.41.26.12,0,.76-.12.82-.1l-2.87.5L26,18l-1.81.32c-.35.07.17,0,.63-.06s.85-.08.4,0l.49,0c-.36.1-1.56.23-.41.2l-1.67.14c.16,0,.66,0,1.21-.07a7.16,7.16,0,0,1,1.31,0,11.62,11.62,0,0,1-1.82.12c.75,0,2,.08.78.14C24.86,18.72,25.09,18.71,25,18.68Zm-1,.91c0-.12-.08-.43.29-.31C24.76,19.68,24.41,19.57,24,19.6Zm-5.78,4.61c-.31,0,0-.11.6-.22C18.85,24,18.7,24.1,18.26,24.21ZM29.86,35.57h0C30.06,35.42,30,35.47,29.86,35.57Zm-.28.32a.27.27,0,0,0,.19.06c-.11-.05-.1-.13-.05-.22C29.59,35.73,29.49,35.76,29.57,35.89ZM34,13.28l-.14.11C33.47,13.48,33.71,13.39,34,13.28Z"/><path class="cls-4" d="M17.9,23.66c.21,0,.41,0,.6,0A1.39,1.39,0,0,0,17.9,23.66Z"/><polygon class="cls-4" points="25.17 18.31 25.19 18.31 24.96 18.33 25.17 18.31"/><path class="cls-4" d="M27,29.2a.54.54,0,0,1,.28-.08A.22.22,0,0,0,27,29.2Z"/><path class="cls-4" d="M30,38l-.08-.26c0,.12-.11.14-.2.18C29.82,37.91,30,37.9,30,38Z"/><path class="cls-4" d="M26.67,39.48c.05,0,0,.08,0,.12l.22,0C26.95,39.48,26.79,39.35,26.67,39.48Z"/><path class="cls-4" d="M28.37,37.89c-.4-.06-.29.12-.25.3a0,0,0,0,1,0,0C28.67,38.31,28.52,38.1,28.37,37.89Z"/><path class="cls-4" d="M28.12,38.22a.22.22,0,0,1,0,.15C28.32,38.44,28.16,38.33,28.12,38.22Z"/><path class="cls-4" d="M29.74,36.41c-.12.06.5.16.33.16C30.55,36.76,29.56,35.93,29.74,36.41Z"/><polygon class="cls-4" points="27.03 37.77 27.53 37.8 27.15 37.63 27.03 37.77"/><path class="cls-4" d="M27.65,36.52l-.19.24a.2.2,0,0,1,.15.11C27.66,36.71,27.79,36.55,27.65,36.52Z"/><path class="cls-4" d="M27.61,36.87a.2.2,0,0,0,0,.23A.41.41,0,0,0,27.61,36.87Z"/><polygon class="cls-4" points="26.95 37.38 27.07 37.32 27.14 37.13 26.95 37.38"/><path class="cls-4" d="M28.37,33.7l-.07-.32c-.16-.07-.28,0-.24.11S28.2,33.7,28.37,33.7Z"/><path class="cls-4" d="M26.83,34.26a1,1,0,0,1,.4,0l-.6-.15Z"/><path class="cls-4" d="M26.89,33.38c-.16-.07-.38-.54-.43-.16C26.61,33.29,26.68,33.62,26.89,33.38Z"/><polygon class="cls-4" points="28.78 29.21 28.77 29.29 29.75 29.55 28.78 29.21"/><path class="cls-4" d="M26.27,28.27c.47.38.54-.5.87-.09.26-.17-.26-.34,0-.47C26.66,27.83,26.56,27.66,26.27,28.27Z"/><path class="cls-4" d="M27.14,27.72l.25-.08A.89.89,0,0,0,27.14,27.72Z"/><polygon class="cls-4" points="17.13 12.36 16.91 12.15 17.05 12.49 17.13 12.36"/><path class="cls-4" d="M16.7,13.12l-.05-.65-.14.59C16.56,13,16.66,13,16.7,13.12Z"/><path class="cls-4" d="M21.6,19.48l.16.09a.81.81,0,0,0,.56-.08Z"/><polygon class="cls-4" points="26.95 17.01 26.86 17.04 27.31 17.46 26.95 17.01"/><path class="cls-4" d="M22.5,18.66h.17C22.44,18.67,24.11,18.6,22.5,18.66Z"/></g></g></g></svg>