<?xml version="1.0" encoding="UTF-8"?>
<svg width="27px" height="19px" viewBox="0 0 27 19" version="1.1" xmlns="http://www.w3.org/2000/svg" xmlns:xlink="http://www.w3.org/1999/xlink">
    <!-- Generator: Sketch 48.2 (47327) - http://www.bohemiancoding.com/sketch -->
    <title>Shape</title>
    <desc>Created with Sketch.</desc>
    <defs></defs>
    <g id="IMG--Case-Study---NYU-Copy-2" stroke="none" stroke-width="1" fill="none" fill-rule="evenodd" transform="translate(-144.000000, -93.000000)">
        <path d="M157.589641,94.2308526 C157.431228,94.2296917 157.290978,94.3330166 157.245136,94.4846566 C157.199294,94.6362965 157.258815,94.8000138 157.391341,94.8868063 L168.474286,102.3649 L145.356499,102.3649 C145.228829,102.364802 145.110814,102.432856 145.046951,102.543405 C144.983087,102.653954 144.983087,102.790185 145.046951,102.900734 C145.110814,103.011283 145.228829,103.079337 145.356499,103.079238 L168.473644,103.079238 L157.391448,110.552072 C157.28352,110.622508 157.221909,110.745627 157.230229,110.874237 C157.238549,111.002847 157.31551,111.117001 157.431614,111.172944 C157.547718,111.228887 157.684956,111.217943 157.790727,111.144306 L169.841674,103.018168 C169.940074,102.951766 169.999053,102.840814 169.999053,102.722105 C169.999053,102.603396 169.940074,102.492444 169.841674,102.426042 L157.790762,94.2947973 C157.731663,94.25369 157.661522,94.231401 157.589534,94.2308526 L157.589641,94.2308526 Z" id="Shape" stroke="#333333" stroke-width="0.5" fill="#333333"></path>
    </g>
</svg>