<?xml version="1.0" encoding="UTF-8"?>
<svg width="27px" height="19px" viewBox="0 0 27 19" version="1.1" xmlns="http://www.w3.org/2000/svg" xmlns:xlink="http://www.w3.org/1999/xlink">
    <!-- Generator: Sketch 48.2 (47327) - http://www.bohemiancoding.com/sketch -->
    <title>Arrow</title>
    <desc>Created with Sketch.</desc>
    <defs></defs>
    <g id="IMG--Case-Study---NYU-Copy-2" stroke="none" stroke-width="1" fill="none" fill-rule="evenodd" transform="translate(-144.000000, -93.000000)">
        <g id="Arrow" transform="translate(145.000000, 94.000000)">
            <rect id="Rectangle-2" x="0" y="0" width="25" height="17"></rect>
            <path d="M12.590588,9.68320502e-06 C12.4321746,-0.00115120681 12.2919247,0.102173729 12.2460827,0.25381368 C12.2002408,0.405453631 12.2597617,0.569170875 12.392288,0.65596337 L23.4752333,8.13405754 L0.357445666,8.13405754 C0.229775611,8.13395865 0.111761284,8.20201302 0.0478976933,8.31256208 C-0.0159658978,8.42311114 -0.0159658978,8.55934175 0.0478976933,8.66989081 C0.111761284,8.78043987 0.229775611,8.84849425 0.357445666,8.84839536 L23.4745908,8.84839536 L12.3923952,16.321229 C12.284467,16.3916655 12.2228554,16.5147837 12.2311756,16.6433939 C12.2394957,16.7720041 12.316457,16.8861577 12.432561,16.942101 C12.5486651,16.9980443 12.6859032,16.9871 12.7916736,16.9134629 L24.8426213,8.78732558 C24.9410212,8.7209231 25,8.60997119 25,8.49126216 C25,8.37255314 24.9410212,8.26160122 24.8426213,8.19519874 L12.7917094,0.0639543823 C12.7326102,0.0228471204 12.6624685,0.000558063958 12.5904809,9.68320502e-06 L12.590588,9.68320502e-06 Z" id="Shape" stroke="#333333" stroke-width="0.5" fill="#333333"></path>
        </g>
    </g>
</svg>