<?xml version="1.0" encoding="UTF-8"?>
<svg width="50px" height="37px" viewBox="0 0 50 37" version="1.1" xmlns="http://www.w3.org/2000/svg" xmlns:xlink="http://www.w3.org/1999/xlink">
    <!-- Generator: Sketch 48.2 (47327) - http://www.bohemiancoding.com/sketch -->
    <title>Shape</title>
    <desc>Created with Sketch.</desc>
    <defs></defs>
    <g id="IMG--Case-Study---NYU-Copy-2" stroke="none" stroke-width="1" fill="none" fill-rule="evenodd" transform="translate(-353.000000, -100.000000)">
        <path d="M399.4375,100.375 C399.375,100.375 399.375,100.1875 399.3125,100.1875 C399.125,100.1875 398.9375,100 398.6875,100 L357.25,100 C357.0625,100 356.875,100.1875 356.625,100.1875 C356.5625,100.1875 356.5625,100.25 356.5,100.25 C354.5625,100.625 353,102.4375 353,104.5625 L353,131.6875 C353,133.8125 354.5625,135.5625 356.5625,135.875 C356.625,135.875 356.625,136.0625 356.6875,136.0625 C356.875,136.0625 357.0625,136.25 357.25,136.25 L398.75,136.25 C398.9375,136.25 399.125,136.0625 399.3125,136.0625 C399.375,136.0625 399.375,136 399.4375,136 C401.4375,135.6875 403,133.875 403,131.75 L403,104.5625 C403,102.4375 401.4375,100.6875 399.4375,100.375 Z M386.6875,118.125 L400.5,105.8125 L400.5,130.4375 L386.6875,118.125 Z M398.75,102.5 C399.3125,102.5 399.8125,102.8125 400.1875,103.1875 L378,123 L355.8125,103.1875 L355.8125,103.125 C356.1875,102.75 356.6875,102.4375 357.25,102.4375 L398.75,102.4375 L398.75,102.5 Z M355.5,105.8125 L369.3125,118.125 L355.5,130.4375 L355.5,105.8125 Z M357.25,133.75 C356.6875,133.75 356.1875,133.4375 355.8125,133.0625 L370.8125,119.6875 L377.25,125.4375 C377.4375,125.625 377.75,125.75 378,125.75 C378.25,125.75 378.5625,125.625 378.75,125.4375 L385.1875,119.6875 L400.1875,133.125 C399.8125,133.5 399.3125,133.8125 398.75,133.8125 L357.25,133.75 Z" id="Shape" fill="#000000" fill-rule="nonzero"></path>
    </g>
</svg>