<?xml version="1.0" encoding="UTF-8"?>
<svg width="47px" height="47px" viewBox="0 0 47 47" version="1.1" xmlns="http://www.w3.org/2000/svg" xmlns:xlink="http://www.w3.org/1999/xlink">
    <!-- Generator: Sketch 48.2 (47327) - http://www.bohemiancoding.com/sketch -->
    <title>noun_1150990_cc</title>
    <desc>Created with Sketch.</desc>
    <defs></defs>
    <g id="IMG--Case-Study---NYU-Copy-2" stroke="none" stroke-width="1" fill="none" fill-rule="evenodd" transform="translate(-92.000000, -47.000000)">
        <g id="noun_1150990_cc" transform="translate(91.000000, 46.000000)" fill="#333333" fill-rule="nonzero">
            <path d="M35.6469103,1.38888889 L13.7217766,1.38888889 C6.91051079,1.38888889 1.38888889,6.91051079 1.38888889,13.7217766 L1.38888889,35.6469103 C1.38888889,42.4581761 6.91051079,47.979798 13.7217766,47.979798 L35.6469103,47.979798 C38.9177955,47.979798 42.0547137,46.6804439 44.3675788,44.3675788 C46.6804439,42.0547137 47.979798,38.9177955 47.979798,35.6469103 L47.979798,13.7217766 C47.979798,6.91051079 42.4581761,1.38888889 35.6469103,1.38888889 Z M45.3282828,35.6060606 C45.3282828,40.9754957 40.9754957,45.3282828 35.6060606,45.3282828 L13.3838384,45.3282828 C8.01440332,45.3282828 3.66161616,40.9754957 3.66161616,35.6060606 L3.66161616,13.3838384 C3.66161616,8.01440332 8.01440332,3.66161616 13.3838384,3.66161616 L35.6060606,3.66161616 C40.9754957,3.66161616 45.3282828,8.01440332 45.3282828,13.3838384 L45.3282828,35.6060606 Z" id="Shape"></path>
            <path d="M24.6843434,13.8888889 C18.7221785,13.8888889 13.8888889,18.7221785 13.8888889,24.6843434 C13.8888889,30.6465083 18.7221785,35.479798 24.6843434,35.479798 C30.6465083,35.479798 35.479798,30.6465083 35.479798,24.6843434 C35.479798,21.8212109 34.342423,19.0753448 32.3178825,17.0508043 C30.2933421,15.0262639 27.547476,13.8888889 24.6843434,13.8888889 Z M24.4949495,32.8282828 C19.8925766,32.8282828 16.1616162,29.0973224 16.1616162,24.4949495 C16.1616162,19.8925766 19.8925766,16.1616162 24.4949495,16.1616162 C29.0973224,16.1616162 32.8282828,19.8925766 32.8282828,24.4949495 C32.8282828,26.7050869 31.9503092,28.8247029 30.387506,30.387506 C28.8247029,31.9503092 26.7050869,32.8282828 24.4949495,32.8282828 Z" id="Shape"></path>
            <path d="M36.9949495,9.72222222 C35.7397569,9.72222222 34.7222222,10.7397569 34.7222222,11.9949495 C34.7222222,13.2501421 35.7397569,14.2676768 36.9949495,14.2676768 C38.2501421,14.2676768 39.2676768,13.2501421 39.2676768,11.9949495 C39.2676768,10.7397569 38.2501421,9.72222222 36.9949495,9.72222222 Z" id="Shape"></path>
        </g>
    </g>
</svg>